<svg xmlns="http://www.w3.org/2000/svg" xmlns:xlink="http://www.w3.org/1999/xlink" viewBox="0,0,256,256" width="64px" height="64px" fill-rule="nonzero"><defs><linearGradient x1="28" y1="7" x2="28" y2="49" gradientUnits="userSpaceOnUse" id="color-1"><stop offset="0" stop-color="#efc42c"></stop><stop offset="1" stop-color="#f35748"></stop></linearGradient><linearGradient x1="39.45" y1="15.974" x2="39.45" y2="57" gradientUnits="userSpaceOnUse" id="color-2"><stop offset="0" stop-color="#efc42c"></stop><stop offset="1" stop-color="#f35748"></stop></linearGradient><linearGradient x1="32.002" y1="11.999" x2="32.002" y2="54.003" gradientUnits="userSpaceOnUse" id="color-3"><stop offset="0" stop-color="#3d64fc"></stop><stop offset="1" stop-color="#c822ff"></stop></linearGradient></defs><g fill="none" fill-rule="nonzero" stroke="none" stroke-width="1" stroke-linecap="butt" stroke-linejoin="miter" stroke-miterlimit="10" stroke-dasharray="" stroke-dashoffset="0" font-family="none" font-weight="none" font-size="none" text-anchor="none" style="mix-blend-mode: normal"><g transform="scale(4,4)"><path d="M23.357,31.16c-0.265,-0.265 -0.53,-0.564 -0.774,-0.884c-0.254,-0.321 -1.028,-1.315 -1.603,-2.796c-0.232,-0.564 -0.431,-1.216 -0.553,-1.923c-0.155,-0.84 -0.199,-1.768 -0.077,-2.763c0.409,-3.294 2.465,-5.327 3.305,-6.156c0.343,-0.343 0.696,-0.652 1.061,-0.928c0.564,-0.442 1.138,-0.807 1.702,-1.105l0.002,-0.029c2.141,-1.179 4.214,-1.481 5.345,-1.649c3.775,-0.55 6.754,0.415 8.783,1.077c1.2,0.393 2.248,0.83 3.153,1.279l1.299,-2.672l-17.458,-5.611l-2.27,7.003l-0.01,0.03l-8.262,1.967l2.422,9.612l-2.594,4.739l-2.828,-0.351l-0.341,6.142l-2.659,4.858l2.313,1.363l-0.313,5.637l4,1l0.123,-0.94c-0.133,-0.077 -0.276,-0.155 -0.409,-0.243c1.492,-2.354 2.984,-4.708 4.476,-7.052c0.011,0.011 0.022,0.022 0.033,0.022l4.41,-7.847c-0.718,-0.442 -1.415,-0.939 -2.056,-1.569c-0.076,-0.067 -0.154,-0.134 -0.22,-0.211z" fill="url(#color-1)"></path><path d="M50.473,47.164l2.527,-0.164l-3.951,-16.867l2.951,-6.133l-3.044,-1.4l0.043,-0.128l2.001,-5.472l-4.632,-1.026l-0.409,0.409c-0.84,1.592 -1.68,3.172 -2.52,4.764l0.243,0.121l-5.062,9.285c2.177,1.017 2.608,1.271 3.039,1.558c1.426,0.962 2.907,1.956 4.012,3.504c0.144,0.21 0.287,0.431 0.42,0.663c0.177,0.287 0.32,0.586 0.464,0.906c1.194,2.785 0.619,5.438 0.354,6.422c-0.022,0.077 -0.044,0.144 -0.055,0.199c-0.03,0.104 -0.072,0.197 -0.104,0.299c-0.203,0.454 -1.052,2.312 -1.761,3.304c-0.068,0.086 -0.132,0.181 -0.202,0.265c-2.045,2.432 -4.719,3.581 -5.46,3.902c-1.017,0.442 -1.989,0.718 -2.918,0.884c-1.116,0.199 -2.166,0.254 -3.161,0.243c-0.663,-0.011 -1.315,-0.033 -1.934,-0.077c-1.315,-0.066 -3.172,-0.276 -5.416,-0.84l6.102,5.215l3.698,-3.808l13.302,2.808z" fill="url(#color-2)"></path><g fill="url(#color-3)"><path d="M33.466,54.003c-0.778,0 -1.508,-0.042 -2.188,-0.08c-5.038,-0.288 -10.161,-2.01 -14.816,-4.982c-0.461,-0.294 -0.6,-0.905 -0.312,-1.371l4.394,-7.071c0.153,-0.247 0.406,-0.414 0.692,-0.46c0.289,-0.043 0.58,0.036 0.801,0.223c1.083,0.911 2.26,1.701 3.499,2.348c1.75,0.914 3.733,1.948 6.176,1.796c0.883,-0.055 3.569,-0.223 4.378,-1.905c0.529,-1.101 0.042,-2.338 0.036,-2.351c-0.273,-0.674 -0.833,-1.193 -3.428,-2.496c-1.568,-0.787 -2.43,-1.134 -3.19,-1.44c-0.686,-0.276 -1.278,-0.515 -2.159,-0.984c-1.871,-0.999 -3.804,-2.029 -5.386,-4.114c-1.882,-2.48 -2.729,-5.401 -2.386,-8.226c0.442,-3.64 2.679,-5.903 3.521,-6.755c3.14,-3.176 6.982,-3.73 8.624,-3.967c3.982,-0.575 7.106,0.432 9.173,1.099c1.856,0.597 3.651,1.416 5.335,2.432c0.451,0.272 0.613,0.848 0.371,1.316l-3.43,6.621c-0.134,0.258 -0.374,0.446 -0.657,0.513c-0.282,0.065 -0.582,0.007 -0.817,-0.163c-1.529,-1.105 -3.188,-1.839 -4.93,-2.179c-1.237,-0.242 -4.998,-0.976 -6.218,0.791c-0.452,0.653 -0.575,1.664 -0.301,2.459c0.318,0.922 1.241,1.377 5.097,3.153l1.005,0.463c4.48,2.07 5.083,2.433 5.694,2.853c1.873,1.286 3.992,2.741 5.162,5.521c0.933,2.214 1.05,4.738 0.338,7.298c-1.009,3.636 -3.833,6.633 -7.952,8.438c-2.271,0.997 -4.325,1.22 -6.126,1.22zM18.378,47.774c4.137,2.469 8.616,3.901 13.013,4.152c2.146,0.123 4.583,0.26 7.398,-0.973c3.557,-1.559 5.982,-4.095 6.828,-7.141c0.589,-2.122 0.501,-4.192 -0.254,-5.987c-0.943,-2.239 -2.646,-3.409 -4.449,-4.646c-0.438,-0.301 -0.85,-0.583 -5.404,-2.688l-1.002,-0.462c-4.257,-1.961 -5.542,-2.553 -6.151,-4.317c-0.483,-1.402 -0.269,-3.069 0.547,-4.249c1.964,-2.844 6.528,-1.952 8.247,-1.616c1.667,0.325 3.263,0.956 4.759,1.879l2.476,-4.78c-1.312,-0.722 -2.688,-1.317 -4.103,-1.772c-2.005,-0.647 -4.752,-1.533 -8.275,-1.023c-1.564,0.226 -4.819,0.695 -7.486,3.393c-0.778,0.787 -2.599,2.629 -2.958,5.591c-0.28,2.306 0.428,4.712 1.993,6.775c1.317,1.736 2.976,2.621 4.732,3.558c0.788,0.42 1.309,0.629 1.967,0.895c0.757,0.305 1.7,0.684 3.341,1.508c2.874,1.442 3.857,2.233 4.383,3.529c0.085,0.208 0.812,2.105 -0.086,3.971c-1.316,2.739 -4.884,2.961 -6.056,3.034c-3.002,0.185 -5.344,-1.037 -7.226,-2.02c-1.032,-0.539 -2.024,-1.167 -2.961,-1.874z"></path></g></g></g></svg>